<svg height="24" viewBox="0 0 23 24" width="23" xmlns="http://www.w3.org/2000/svg"><path d="m1199.36069 29.7882053h13.21232c1.49815 0 2.72033-1.2221766 2.72033-2.7203285v-5.5589322c0-.0049282 0-.0147844 0-.0197126 0-.0147844 0-.0246406 0-.039425 0-.0098563 0-.0197125-.00493-.0295688 0-.0098563-.00493-.0246407-.00493-.0344969 0-.0098563-.00493-.0197126-.00493-.0295688-.00492-.0098563-.00492-.0197125-.00985-.0344969-.00493-.0098563-.00493-.0197126-.00986-.0295688-.00493-.0098563-.00493-.0197125-.00985-.0295688-.00493-.0098563-.00986-.0197125-.01479-.0344969-.00493-.0098563-.00986-.0197126-.01478-.0246407-.00493-.0098563-.00986-.0197125-.01479-.0295688-.00493-.0098562-.00985-.0147844-.01478-.0246406-.00493-.0098563-.01479-.0197126-.01971-.0295688-.00493-.0098563-.00986-.0147844-.01972-.0246407-.00493-.0098562-.01478-.0147844-.01971-.0246406-.00493-.0098563-.01478-.0147844-.01971-.0246407s-.01479-.0147844-.01971-.0197125c-.00986-.0098563-.01479-.0147844-.02465-.0246407-.00985-.0049281-.01478-.0147844-.02464-.0197125-.00985-.0049281-.01971-.0147844-.02956-.0197125-.00986-.0049282-.01479-.0098563-.02465-.0147844-.00985-.0049282-.01971-.0098563-.02956-.0197125-.00986-.0049282-.01972-.0098563-.02957-.0147844-.00986-.0049282-.01972-.0098563-.02957-.0147844-.00986-.0049282-.01971-.0098563-.02957-.0147844-.00986-.0049282-.01971-.0049282-.02957-.0098563s-.02464-.0098563-.0345-.0098563c-.00985 0-.01971-.0049281-.02464-.0049281-.01478-.0049281-.02464-.0049281-.03942-.0049281-.00493 0-.00986-.0049282-.01971-.0049282l-16.74579-2.3112936v-2.3359343c0-.0246406 0-.0492813-.00493-.0689938 0-.0049281 0-.0098563-.00493-.0197125 0-.0147844-.00493-.0295688-.00493-.0443532-.00493-.0147844-.00493-.0246407-.00986-.0394251 0-.0098562-.00492-.0147844-.00492-.0246406-.00493-.0147844-.00986-.0295688-.01479-.0443532 0-.0049281-.00493-.0147844-.00493-.0197125-.00492-.0147844-.00985-.0246407-.01971-.0394251-.00493-.0049281-.00493-.0147844-.00986-.0197125-.00492-.0098563-.00985-.0197125-.01971-.0295688-.00493-.0098563-.00985-.0147844-.01478-.0246407-.00493-.0098562-.00986-.0147844-.01479-.0246406-.00492-.0098563-.01478-.0197125-.01971-.0295688-.00493-.0049281-.00986-.0098563-.01478-.0147844-.00986-.0098563-.01972-.0197125-.02957-.0295688-.00493-.0049281-.00986-.0098563-.01479-.0147844-.00985-.0098563-.01971-.0197125-.03449-.0295688-.00493-.0049281-.01479-.0098562-.01972-.0147844-.00985-.0098562-.01971-.0147844-.02956-.0246406-.01479-.0098563-.02957-.0197126-.03943-.0246407-.00493-.0049281-.00986-.0049281-.01478-.0098562-.01972-.0098563-.04436-.0197126-.06407-.0295688l-3.63203-1.5277208c-.34004-.1429158-.72937.0147844-.87228.3548255-.14292.3400411.01478.7293634.35482.8722792l3.223 1.3601643v3.0160164.4780288 3.6665298 3.2772074 4.1396303c0 1.3798768 1.03491 2.5232033 2.37043 2.6956879-.24148.4041068-.38439.8772074-.38439 1.3798768 0 1.4833676 1.20739 2.6858317 2.68583 2.6858317s2.68583-1.2073922 2.68583-2.6858317c0-.4928131-.13306-.9609856-.36961-1.3552361h5.98275c-.23655.3991786-.36961.862423-.36961 1.3552361 0 1.4833676 1.2074 2.6858317 2.68584 2.6858317 1.47843 0 2.68583-1.2073922 2.68583-2.6858317 0-1.4784394-1.2074-2.6858316-2.68583-2.6858316h-12.56674c-.76879 0-1.38973-.6258727-1.38973-1.3897331v-1.803696c.4041.2365503.88213.3745379 1.38973.3745379zm3.3117 5.4997947c0 .749076-.61108 1.3552361-1.35523 1.3552361s-1.35524-.6110883-1.35524-1.3552361.61109-1.3552361 1.35524-1.3552361 1.35523.6061601 1.35523 1.3552361zm10.6152 0c0 .749076-.61109 1.3552361-1.35524 1.3552361-.74414 0-1.35523-.6110883-1.35523-1.3552361s.61109-1.3552361 1.35523-1.3552361c.74415 0 1.35524.6061601 1.35524 1.3552361zm-.71458-6.8303901h-13.21232c-.76879 0-1.38973-.6258727-1.38973-1.3897331v-3.2772074-3.6665298-.2464065l15.99178 2.2028747v4.9823409c0 .7737166-.62587 1.3946612-1.38973 1.3946612z" transform="translate(-1193 -14)"/></svg>