<?xml version="1.0" encoding="UTF-8"?>
<svg width="22px" height="22px" viewBox="0 0 22 22" version="1.1" xmlns="http://www.w3.org/2000/svg" xmlns:xlink="http://www.w3.org/1999/xlink">
    <!-- Generator: Sketch 50.2 (55047) - http://www.bohemiancoding.com/sketch -->
    <title>влево</title>
    <desc>Created with Sketch.</desc>
    <defs></defs>
    <g id="Page-1" stroke="none" stroke-width="1" fill="none" fill-rule="evenodd">
        <g id="Cart-Desktop" transform="translate(-522.000000, -309.000000)" fill="#000000" fill-rule="nonzero">
            <g id="Список-товаров" transform="translate(25.000000, 255.000000)">
                <g id="1">
                    <g id="Количество" transform="translate(497.000000, 53.000000)">
                        <g id="влево" transform="translate(0.000000, 1.000000)">
                            <path d="M10.8137333,21.6269778 C4.85075556,21.6269778 0,16.7762222 0,10.8137333 C0,4.85124444 4.85075556,0.000488888889 10.8137333,0.000488888889 C16.7767111,0.000488888889 21.6274667,4.85124444 21.6274667,10.8137333 C21.6274667,16.7762222 16.7757333,21.6269778 10.8137333,21.6269778 Z M10.8137333,0.733822222 C5.25555556,0.733822222 0.733333333,5.25555556 0.733333333,10.8137333 C0.733333333,16.3714222 5.25555556,20.8936444 10.8137333,20.8936444 C16.3719111,20.8936444 20.8941333,16.3714222 20.8941333,10.8137333 C20.8941333,5.25555556 16.3719111,0.733822222 10.8137333,0.733822222 Z" id="Shape"></path>
                            <path d="M12.0594222,14.6099556 C11.9655556,14.6099556 11.8716889,14.5747556 11.8003111,14.5024 L8.21773333,10.9168889 C8.07497778,10.7736444 8.07497778,10.5414222 8.21773333,10.3981778 L11.8003111,6.81315556 C11.9435556,6.66991111 12.1757778,6.66991111 12.3190222,6.81315556 C12.4622667,6.9564 12.4622667,7.18862222 12.3190222,7.33186667 L8.99555556,10.6577778 L12.3190222,13.9846667 C12.4617778,14.1279111 12.4617778,14.3606222 12.3190222,14.5033778 C12.2471556,14.5747556 12.1532889,14.6099556 12.0594222,14.6099556 Z" id="Shape"></path>
                        </g>
                    </g>
                </g>
            </g>
        </g>
    </g>
</svg>