<?xml version="1.0" encoding="UTF-8"?>
<svg width="22px" height="22px" viewBox="0 0 22 22" version="1.1" xmlns="http://www.w3.org/2000/svg" xmlns:xlink="http://www.w3.org/1999/xlink">
    <!-- Generator: Sketch 50.2 (55047) - http://www.bohemiancoding.com/sketch -->
    <title>вправо</title>
    <desc>Created with Sketch.</desc>
    <defs></defs>
    <g id="Page-1" stroke="none" stroke-width="1" fill="none" fill-rule="evenodd">
        <g id="Cart-Desktop" transform="translate(-603.000000, -309.000000)" fill="#000000" fill-rule="nonzero">
            <g id="Список-товаров" transform="translate(25.000000, 255.000000)">
                <g id="1">
                    <g id="Количество" transform="translate(497.000000, 53.000000)">
                        <g id="вправо" transform="translate(81.000000, 1.000000)">
                            <path d="M11,22 C4.93453296,22 0,17.065467 0,11 C0,4.93453296 4.93453296,0 11,0 C17.065467,0 22,4.93453296 22,11 C22,17.065467 17.065467,22 11,22 Z M11,0.745998734 C5.34632426,0.745998734 0.745998734,5.34582693 0.745998734,11 C0.745998734,16.6536757 5.34632426,21.2540013 11,21.2540013 C16.6546704,21.2540013 21.2540013,16.6536757 21.2540013,11 C21.2540013,5.34582693 16.6546704,0.745998734 11,0.745998734 Z" id="Shape"></path>
                            <path d="M9.33981078,15 C9.25279021,15 9.16576964,14.9638809 9.09959776,14.891148 C8.96680075,14.7466718 8.96680075,14.5111558 9.09959776,14.3661848 L12.1797632,10.9996908 L9.09959776,7.63369153 C8.96725398,7.48872053 8.96725398,7.25320448 9.09959776,7.10872826 C9.23239477,6.96375725 9.44768002,6.96375725 9.58047703,7.10872826 L12.9004022,10.7369617 C13.0331993,10.8819327 13.0331993,11.116954 12.9004022,11.261925 L9.58047703,14.8901585 C9.51385191,14.9638809 9.42683134,15 9.33981078,15 Z" id="Shape"></path>
                        </g>
                    </g>
                </g>
            </g>
        </g>
    </g>
</svg>