<?xml version="1.0" encoding="UTF-8"?>
<svg width="30px" height="30px" viewBox="0 0 30 30" version="1.1" xmlns="http://www.w3.org/2000/svg" xmlns:xlink="http://www.w3.org/1999/xlink">
    <!-- Generator: Sketch 50.2 (55047) - http://www.bohemiancoding.com/sketch -->
    <title>Удалить</title>
    <desc>Created with Sketch.</desc>
    <defs></defs>
    <g id="Page-1" stroke="none" stroke-width="1" fill="none" fill-rule="evenodd">
        <g id="Cart-Desktop" transform="translate(-893.000000, -305.000000)" fill="#000000" fill-rule="nonzero">
            <g id="Список-товаров" transform="translate(25.000000, 255.000000)">
                <g id="1">
                    <g id="Удалить" transform="translate(868.000000, 50.000000)">
                        <path d="M10.3553333,19.6366667 C10.2273333,19.6366667 10.0993333,19.588 10.002,19.49 C9.80666667,19.2946667 9.80666667,18.9773333 10.002,18.782 L18.7826667,10.0013333 C18.978,9.806 19.2946667,9.806 19.49,10.0013333 C19.6853333,10.1966667 19.6853333,10.5133333 19.49,10.7086667 L10.7086667,19.49 C10.6113333,19.588 10.4833333,19.6366667 10.3553333,19.6366667 Z" id="Shape"></path>
                        <path d="M19.136,19.6366667 C19.008,19.6366667 18.88,19.588 18.7826667,19.49 L10.0013333,10.7093333 C9.806,10.514 9.806,10.1973333 10.0013333,10.002 C10.1966667,9.80666667 10.5133333,9.80666667 10.7086667,10.002 L19.4893333,18.7826667 C19.6846667,18.978 19.6846667,19.2953333 19.4893333,19.4906667 C19.392,19.588 19.264,19.6366667 19.136,19.6366667 Z" id="Shape"></path>
                        <path d="M14.746,29.4913333 C6.61466667,29.4913333 0,22.8766667 0,14.7466667 C0,6.616 6.61466667,0.000666666667 14.746,0.000666666667 C22.8773333,0.000666666667 29.492,6.61533333 29.492,14.7466667 C29.492,22.878 22.876,29.4913333 14.746,29.4913333 Z M14.746,1.00066667 C7.16666667,1.00066667 1,7.16733333 1,14.7466667 C1,22.326 7.16666667,28.4926667 14.746,28.4926667 C22.3253333,28.4926667 28.492,22.326 28.492,14.7466667 C28.492,7.16733333 22.3253333,1.00066667 14.746,1.00066667 Z" id="Shape"></path>
                    </g>
                </g>
            </g>
        </g>
    </g>
</svg>