<svg height="52" viewBox="0 0 92 52" width="92" xmlns="http://www.w3.org/2000/svg"><g fill="none" fill-rule="evenodd"><path d="m91.999846 44.4731973c-15.1255789 4.6068786-30.2511578 7.0108699-45.3766511 7.1092231-16.8544438.1095951-31.0815995-2.2315479-46.62239069-7.1092231l3.97052542-33.7006402c14.50496777-7.48388263 25.34988677-10.77177 42.32319977-10.77177 16.9732958 0 28.2240675 3.92744025 41.7347912 10.77177z" fill="#4c8760"/><g fill-rule="nonzero"><path d="m72.7869429 33.3682616h-.2307058c-.1058307-.0380375-.2605643-.0651924-.4614801-.0842197-1.3048405-.1234378-1.6263879.2845537-2.1288999.8574084l-.0973095 5.6197735h-2.7825008v-8.9310856h2.4867908v1.4263106c.1275786-.1166962.3048814-.5766876.5293931-.7538877.2258293-.1781584.4331103-.3180055.6162308-.4261804.2022162-.119605.4365667-.2271297.7030342-.3149084.2681615-.0884119.5212484-.1302822.7600818-.1302822.0896439 0 .1928566.0028062.304043.0081448.111272.0053386.2117813.013586.3013224.0244514zm-9.2529239.8743482c-.0158275-.5890587-.147239-1.0369528-.396955-1.3464199-.2496989-.3067637-.6308263-.4614972-1.1434508-.4614972-.5257314 0-.9330898.1628954-1.2301858.4859315-.2943925.3230531-.4573564.7655231-.4889259 1.3219856zm-.8937519 5.8527208c-1.6322912 0-2.8835405-.4017289-3.7535939-1.207993-.8701389-.8062641-1.3064318-1.9545059-1.3064318-3.4448796 0-1.457709.404826-2.6223259 1.2170789-3.4909762.8122529-.8713538 1.9451292-1.3057645 3.4040359-1.3057645 1.3247918 0 2.2056079.3375632 2.872504 1.0737582.6682991.7376153 1.0014648 1.794622 1.0014648 3.1680086v1.1540425l-5.7929525.0311075c.0541387.8485964.1741201 1.0858386.8254624 1.5496628.2299359.1636313.4994149.2823978.8069143.3529288.3074994.0733372.6440359.1085684 1.0094214.1085684.312838 0 .6229553-.0352312.9253044-.1085684.3022634-.070531.5809139-.165599.8305272-.2822951.2208671-.1004066.425804-.2090606.6124664-.3257738l.0858966-.0536597.2212435 2.223215-.167755.0700519c-.1814265.0759723-.4337604.1547336-.7518515.2334265-.2917574.0814819-.5940208.1438681-.9042409.1873126-.3101173.0461822-.6886097.0678275-1.1354942.0678275zm-6.955328-.0650042c-1.1347414 0-1.9599301-.233512-2.4757372-.7004333-.5185277-.4669043-.7763885-1.2297067-.7763885-2.2884074v-4.1750859h-1.0668283v-1.9409199h1.0668283v-2.0182781l2.8170648-.6626697-.034564 2.6809478h2.0722287v1.9409199h-2.0722287v2.8194774c0 .3148229.0028062.5863552.0081448.8197646.0054241.2334093.051709.4414432.1275786.627079.0760407.1862005.2064255.3339186.3936697.4424699.1872272.1085514.4614801.1628784.8224681.1628784.1383414 0 .3164826-.0279078.5341671-.0817729v2.281854c-.0553708.0086238-.111272.0165804-.1676694.0242632-.3393427.0461822-.7546577.067913-1.248734.067913zm-11.7799766-16.9364904v-1.7283858c-.460077.0488857-.8328714.0896267-1.1158339.1222229-.2854777.0354024-.5632041.1033154-.8381929.2039102-.2380122.0842026-.4212182.214211-.5526297.3857987-.1329001.1733845-.1983834.266382-.1983834.5544948 0 .4184976.1105362.7075344.3305478.8641501.2188993.1558629.5421236.2337858.9704599.2337858.2379951 0 .4813458-.0571332.7298298-.1685078.2485012-.1114602.4732866-.2662793.6742024-.4674689zm0 1.519137c-.1849856.1603631-.3516283.3044023-.4997057.4320665-.1480775.1251489-.3437403.2528131-.5922414.3805628-.2433336.1222401-.4786252.2145874-.7087492.2798654-.2300385.0625744-.5526297.0950851-.9651214.0950851-.7694586 0-1.4093708-.2662965-1.9171187-.7961516-.5102973-.5300433-.7642055-1.1985307-.7642055-2.0056332 0-.6631488.1296148-1.2012513.3887931-1.6088835.2564577-.4077177.6293377-.7337653 1.1131988-.9701691.4918348-.2445656 1.0788231-.4157769 1.7610847-.5109476.6821589-.0950679 1.4146067-.1684907 2.1999784-.2228177v-.0489884c0-.4918348-.1772001-.8341719-.5314464-1.0217925-.3543318-.187518-.8866338-.3146176-1.5919266-.282586-.781248.0355906-1.5391739.3032901-2.2802455.7415507l-.3170644-2.0069507c.544194-.1589428 2.1180345-.6872237 3.0997363-.7021958 1.4991001-.0228601 2.4399583.2565433 3.1252999.7690651.6842122.511786 1.1067309 1.516519 1.117408 2.5679134l.0595801 5.8594454h-2.6972545zm-9.7905473 15.1482508h-2.8470259l-.1624164-9.8142459-2.8121881 9.5764391h-2.027826l-2.8083382-9.5764391-.2086841 9.8142459h-2.6444332l.7072606-12.4195295h3.5454743l2.5054416 8.3603869 2.4973653-8.3603869h3.5481095zm29.1908828-14.1450064h-2.8900254v-4.4302431c0-.3583529-.0132952-.7194264-.0425205-1.0776938-.0292254-.3556493-.0824231-.6216549-.159422-.7899745-.0929976-.2008987-.2285327-.3447668-.4065884-.4344107-.1753351-.0868205-.4118415-.1302821-.7067986-.1302821-.2231942 0-.4491089.0434616-.6775561.1275615-.2284643.084117-.524431.375036-.733406.6754173v6.0596254h-2.723571v-13.0985058h2.723571v5.1527666c.4464054-.3854394.8821336-.6894653 1.3047549-.9066707.422416-.2172053.8900902-.3257738 1.4055209-.3257738.8928108 0 1.7255796.2884893 2.1966247.8633117.4721573.5761229.7094165 1.4089944.7094165 2.500086zm-13.009803.241845c-.5799728 0-1.1264084-.070531-1.6394949-.2143992-.5155333-.1438682-.9403106-.3094671-1.2768471-.5022382l.5307962-1.8837696c.0557301-.1979214.4278573.1096807.6935035.2468927.2283445.1179281.4844257.2252646.770759.3149084.2864188.0868206.5992568.1385296.933278.1302822 1.1135753-.0275314 1.7780245-1.2210144.5366824-1.6065393-.4332814-.1344915-.9945179-.3415843-1.3671241-.4735604-.9934912-.3516112-1.8985705-1.3051143-1.8985705-2.5560042 0-.3963048.0806435-.7740443.2410921-1.1265967.1593193-.3503963.3944226-.6676489.7087493-.9419874.3108873-.2712586.5360492-.4145621.9938847-.5732312.4585712-.1588573.9760723-.2389361 1.553701-.2389361.5512094 0 1.0571949.0624717 1.5178365.1873297.4604535.124858.8495375.2741675 1.1669612.4479112l-.5475649 1.7731479c-.0701545.2273349-.4046207-.0443001-.5764993-.1334648-.2050395-.1062072-.4343252-.1954746-.6897562-.2633876-.2529842-.0678104-.5130864-.1031272-.7779627-.1031272-1.115543 0-1.5311317 1.1248171-.293554 1.5745078.2062544.0749285.4510938.1166961.7230881.1710231.272097.0569621.5346462.1330028.7875277.2279852.5633069.20634.9905139.510383 1.2816211.9093913.2911927.4018145.4367548.9338256.4367548 1.5962214 0 .4180356-.0859821.8171295-.2577581 1.1971277-.1742228.3773801-.4176591.6977127-.7350828.958277-.3365366.2795915-.7303089.4967969-1.1836443.6515305-.4558677.1547335-.999959.2307058-1.6323767.2307058zm-19.9078952-1.7656704c-1.0107389-1.0740492-1.6055982-2.5843056-1.6055982-4.5307352 0-1.8758131.4942645-3.3834345 1.5187606-4.4872736 1.6547748-1.7829011 5.202217-2.5805584 7.3755195-1.7539666.3141384.1195194.5561717.2578608.7450072.3582674l-.3684825 2.0558364c-1.4215367-.2880101-2.6956632-.6495627-4.3453732-.0032681-.3461871.1356207-.6694114.460077-.9827285.7927635-.2847419.3024517-.5223605.7111106-.7029486 1.2242997-.1814265.5155162-.2420332 1.1211554-.2420332 1.8214861 0 .738351.092912 1.3580382.2832533 1.8595235.189845.4999795.5779024.9182889.886052 1.226062 1.2552019 1.2539871 3.5350881.5788436 5.0807298.4972589l.3382305 2.1067927c-2.060251.985911-6.3684252.5459735-7.9803887-1.1670467zm10.1098533 13.1891591v-1.7283858c-.460077.0488858-.8328715.0896267-1.1158339.1222229-.2854777.0354195-.5632042.1033155-.8381929.2039103-.2380122.0842025-.4212183.2142109-.5526297.3858158-.1329001.1733673-.1983834.2663649-.1983834.5544776 0 .4184976.1105362.7075515.3305477.8641502.2188993.1558629.5421236.2337858.97046.2337858.237995 0 .4813458-.0571332.7298298-.1684908.2485011-.1114601.4732866-.2662964.6742024-.467486zm0 1.5191371c-.1849856.160363-.3516283.3044194-.4997058.4320836-.1480774.1251317-.3437402.2527959-.5922413.3805628-.2433337.1222229-.4786252.2145702-.7087493.2798653-.2300385.0625573-.5526296.095068-.9651213.095068-.7694586 0-1.4093708-.2662964-1.9171187-.7961515-.5102974-.5300434-.7642227-1.1985307-.7642227-2.0056332 0-.6631488.129632-1.2012514.3888103-1.6088664.2564577-.4077349.6293206-.7337825 1.1131988-.9701862.4918348-.2445485 1.0788231-.415777 1.7610847-.5109305.6821589-.095068 1.4146067-.1685078 2.1999784-.2228348v-.0489885c0-.4918347-.1772002-.8341718-.5314464-1.0217754-.3543319-.187518-.8866338-.3146175-1.5919267-.282586-.781248.0355906-1.5391738.303273-2.2802455.7415337l-.3170644-2.0069507c.5441941-.1589429 2.1180345-.6872067 3.0997363-.7021958 1.4991002-.0228601 2.4399584.2565432 3.1252999.7690821.6842123.5117861 1.1067309 1.5165191 1.1174081 2.5678963l.05958 5.8594625h-2.6972544zm6.6383663 1.2451749c-.5799729 0-1.1264084-.070531-1.6394949-.2143992-.5155333-.1438682-.9403106-.3094671-1.2768471-.5022211l.5307962-1.8837696c.0557301-.1979214.4278572.1096807.6935034.2468927.2283446.1179281.4844258.2252646.7707591.3148913.2864188.0868377.5992567.1385296.933278.1302993 1.1135752-.0275485 1.7780244-1.2210144.5366823-1.6065393-.4332813-.1344915-.9945178-.3415843-1.367124-.4735604-.9934912-.3516283-1.8985705-1.3051314-1.8985705-2.5560042 0-.3963048.0806435-.7740443.2410921-1.1265966.1593193-.3504135.3944226-.667649.7087663-.9419875.3108703-.2712586.5360322-.4145621.9938676-.5732312.4585713-.1588573.9760724-.2389361 1.553701-.2389361.5512095 0 1.0571949.0624717 1.5178366.1873297.4604534.124858.8495375.2741504 1.1669612.4479112l-.5475649 1.7731479c-.0701546.2273349-.4046207-.0443001-.5764994-.1334648-.2050395-.1062243-.4343251-.1954745-.689739-.2633876-.2530013-.0678103-.5131036-.1031272-.7779798-.1031272-1.115543 0-1.5311317 1.1248171-.2935541 1.5745078.2062544.0749285.4510938.1166961.7230882.1710231.272097.056945.5346461.1330028.7875448.2279852.5632897.20634.9904967.5103659 1.2816039.9093913.2911928.4018145.4367549.9338256.4367549 1.5962215 0 .4180184-.0859821.8171294-.2577581 1.1971276-.1742228.377363-.4176592.6976956-.7350829.958277-.3365365.2795915-.7303089.4967969-1.1836442.6515305-.4558506.1547335-.9999591.2306887-1.6323767.2306887z" fill="#1c5831"/><path d="m88.9368297 42.8345409-3.3361401-30.421736h-.0003764l-.0403645-.3427991c-6.5684-3.26074956-12.5166508-5.70211099-18.7025373-7.33027846-6.2521911-1.64550077-12.7615757-2.46422155-20.419493-2.46422155-7.8802559 0-14.4335812.73424443-20.7268897 2.33674559-6.2301865 1.58648539-12.2134633 4.02476687-18.9819406 7.44398012l-3.66348801 30.7988253c7.19426411 2.1556784 14.18725311 3.746664 21.27558391 4.7902729 7.2192802 1.0629099 14.5367084 1.5599806 22.2648658 1.5097773 7.1379865-.0463704 14.2338974-.6219287 21.2639827-1.6802529 7.1105236-1.0703019 14.1405063-2.632986 21.0667972-4.6403132zm-2.407174-30.5241103 3.379037 30.8131642.0424349.3872018-.3771919.1103309c-7.0992817 2.0750519-14.2962665 3.6851332-21.5649116 4.7793218-7.0592936 1.0627218-14.1999836 1.6407269-21.399227 1.6875593-7.7857526.0504771-15.148901-.4488522-22.4040456-1.5170837-7.2630327-1.0693779-14.42020051-2.7072814-21.78653153-4.9324641l-.3756862-.1135135.04635334-.3895631 3.73946026-31.4375056.02951625-.2483129.22478546-.1138899c6.92469952-3.51130397 13.03067832-6.00969592 19.39696472-7.63084793 6.3720869-1.62245244 12.9982703-2.36595384 20.9573046-2.36595384 7.7359429 0 14.3215735.82967173 20.6574025 2.49717708 6.3309696 1.66629047 12.3994926 4.16620529 19.1080135 7.50852229l.2262057.1126751.0298755.2532751.0702401.5962623z" fill="#b2d9be"/><path d="m72.61657 32.3457161h-.2307058c-.1058307-.0380203-.2605643-.0651924-.4614801-.0842025-1.3048405-.1234549-1.6263879.2845537-2.1288999.8574084l-.0973095 5.6197735h-2.7825008v-8.9310856h2.4867908v1.4263105c.1275786-.1166961.3048814-.5766875.5293931-.7539048.2258293-.1781412.4331103-.3179883.6162137-.4261632.2022333-.1196221.4365838-.2271468.7030513-.3149084.2681615-.0884119.5212484-.1302822.7600818-.1302822.0896439 0 .1928566.0028062.304043.0081448.111272.0053386.2117641.013586.3013224.0244514zm-9.2529239.8743654c-.0158275-.5890588-.147239-1.0369699-.396955-1.3464371-.2496989-.3067465-.6308264-.4614801-1.1434508-.4614801-.5257314 0-.9330898.1628784-1.2301858.4859316-.2943925.3230531-.4573735.765523-.4889259 1.3219856zm-.8937519 5.8527037c-1.6322912 0-2.8835405-.401729-3.7535939-1.207993-.8701389-.806247-1.3064318-1.9544889-1.3064318-3.4448796 0-1.4576919.4048089-2.6223089 1.2170789-3.4909592.8122529-.8713538 1.9451292-1.3057816 3.4040359-1.3057816 1.3247918 0 2.2056079.3375632 2.872504 1.0737754.6682991.7375982 1.0014648 1.7946049 1.0014648 3.1680086v1.1540425l-5.7929697.0310904c.0541388.8485964.1741373 1.0858557.8254796 1.5496799.2299358.1636313.4994149.2823978.8069143.3529288.3074994.0733372.6440359.1085513 1.0094214.1085513.312838 0 .6229553-.0352141.9253044-.1085513.3022634-.070531.5809139-.165599.8305272-.2823122.2208671-.1004066.425804-.2090606.6124664-.3257567l.0858966-.0536768.2212264 2.2232321-.167755.0700519c-.1814265.0759551-.4337434.1547336-.7518344.2334093-.2917745.0814991-.5940208.1438682-.9042409.1873298-.3101173.0461822-.6886097.0678104-1.1354942.0678104zm-6.955328-.0650042c-1.1347414 0-1.9599301-.2334949-2.4757372-.7004163-.5185277-.4669213-.7763885-1.2297238-.7763885-2.2884073v-4.1750859h-1.0668283v-1.9409199h1.0668283v-2.0182781l2.8170477-.6626697-.0345469 2.6809478h2.0722287v1.9409199h-2.0722287v2.8194774c0 .3148057.0028062.5863381.0081448.8197474.0054241.2334094.0516919.4414433.1275615.6270962.0760578.1862005.2064426.3339015.3936697.4424699.1872443.1085514.4614972.1628784.8224681.1628784.1383414 0 .3164997-.0279079.534167-.0817729v2.2818539c-.0553536.0086239-.1112719.0165805-.1676522.0242633-.3393428.0461651-.7546577.0678959-1.248734.0678959zm-11.7799766-16.9364904v-1.7283858c-.4600941.0489028-.8328714.0896438-1.1158339.12224-.2854777.0354024-.5632042.1033154-.8381929.2039102-.2380122.0842026-.4212182.2142109-.5526297.3857987-.1329001.1733673-.1983834.266382-.1983834.5544948 0 .4184805.1105362.7075343.3305478.8641501.2188993.1558458.5421236.2337858.9704599.2337858.2379951 0 .4813458-.0571332.7298298-.1685078.248484-.1114602.4732866-.2662965.6742024-.467486zm0 1.5191541c-.1849856.1603459-.3516283.3044023-.4997057.4320665-.1480775.1251318-.3437403.252796-.5922414.3805628-.2433336.1222229-.4786252.2145874-.7087492.2798653-.2300556.0625745-.5526297.095068-.9651214.095068-.7694586 0-1.4093708-.2662793-1.9171358-.7961515-.5102802-.5300433-.7642055-1.1985136-.7642055-2.0056332 0-.6631317.1296319-1.2012342.3888102-1.6088664.2564577-.4077178.6293206-.7337653 1.1131988-.9701862.4918348-.2445485 1.0788231-.4157598 1.7610847-.5109305.6821589-.095068 1.4146067-.1685078 2.1999784-.2228348v-.0489713c0-.4918348-.1772172-.834189-.5314464-1.0217926-.3543318-.187518-.8866338-.3146175-1.5919266-.2825859-.781248.0355906-1.5391739.3032901-2.2802627.7415336l-.3170472-2.0069336c.544194-.15896 2.1180345-.6872238 3.0997362-.7022129 1.4991002-.022843 2.4399584.2565433 3.1253.7690822.6842122.511786 1.1067308 1.516519 1.117408 2.5678963l.0595801 5.8594625h-2.6972545zm-9.7905645 15.1482508h-2.8470087l-.1624164-9.814263-2.8121881 9.576439h-2.027826l-2.8083382-9.576439-.2086841 9.814263h-2.6444332l.7072605-12.4195295h3.5454744l2.5054245 8.3603869 2.4973824-8.3603869h3.5480924zm29.1908829-14.1450235h-2.8900083v-4.430226c0-.3583529-.0132952-.7194435-.0425205-1.0776938-.0292254-.3556493-.0824231-.6216549-.159422-.7899745-.0929976-.2009158-.2285327-.344784-.4065884-.4344107-.1753522-.0868376-.4118415-.1302992-.7067986-.1302992-.2231942 0-.4491261.0434616-.6775733.1275786-.2284471.084117-.5244138.375036-.7333888.6754172v6.0596084h-2.723571v-13.0984887h2.723571v5.1527494c.4464054-.3854222.8821336-.6894481 1.3047549-.9066706.422416-.2172053.8900902-.3257567 1.4055209-.3257567.8928108 0 1.7255796.2884892 2.1966247.8633117.4721573.5761229.7093994 1.4089944.7093994 2.5000859zm-13.0097859.241845c-.5799728 0-1.1264084-.070531-1.639512-.2143992-.5155162-.1438682-.9402935-.3094672-1.27683-.5022211l.5307962-1.8837867c.0557301-.1979043.4278573.1096807.6934864.2469098.2283616.117911.4844428.2252646.7707761.3148913.2864188.0868377.5992568.1385296.9332609.1302993 1.1135752-.0275485 1.7780416-1.2210144.5366995-1.6065394-.4332814-.1345085-.9945179-.3416013-1.3671241-.4735603-.9934912-.3516283-1.8985705-1.3051314-1.8985705-2.5560214 0-.3962877.0806435-.7740443.2410921-1.1265966.1593193-.3503963.3944226-.6676318.7087493-.9419703.3108702-.2712586.5360492-.4145621.9938847-.5732312.4585712-.1588573.9760723-.2389361 1.5537009-.2389361.5512095 0 1.057195.0624717 1.5178366.1873297.4604535.124858.8495375.2741503 1.1669612.4478941l-.5475649 1.7731649c-.0701545.2273179-.4046378-.0443-.5764993-.1334647-.2050395-.1062243-.4343252-.1954746-.6897562-.2633876-.2529842-.0678104-.5130865-.1031272-.7779627-.1031272-1.115543 0-1.5311317 1.1248171-.293554 1.5745078.2062544.0749285.4510938.1166961.7230881.1710231.272097.056945.5346462.1330028.7875277.2279852.5633068.2063399.9905139.5103658 1.2816211.9093741.2911927.4018317.4367548.9338427.4367548 1.5962386 0 .4180185-.0859821.8171295-.2577752 1.1971276-.1742057.3773631-.417642.6976957-.7350657.958277-.3365366.2795916-.7303089.496797-1.1836443.6515305-.4558677.1547336-.999959.2306888-1.6323767.2306888zm-19.9078952-1.7656704c-1.0107389-1.0740492-1.6055982-2.5842885-1.6055982-4.5307352 0-1.8758131.4942645-3.3834345 1.5187606-4.4872737 1.6547748-1.782901 5.2022169-2.5805412 7.3755195-1.7539494.3141384.1195194.5561717.2578608.7450072.3582673l-.3684825 2.0558365c-1.4215538-.2880101-2.6956632-.6495627-4.3453732-.0032853-.3461871.1356379-.6694285.4600941-.9827285.7927807-.2847419.3024517-.5223605.7110935-.7029486 1.2242826-.1814265.5155333-.2420332 1.1211724-.2420332 1.8215031 0 .7383511.092912 1.3580382.2832362 1.8595064.1898621.4999796.5779195.9182889.8860691 1.2260792 1.2552019 1.2539699 3.5350881.5788435 5.0807298.4972589l.3382305 2.1067927c-2.060251.985911-6.3684252.5459735-7.9803887-1.1670638zm10.1098533 13.1891762v-1.7283858c-.4600941.0488858-.8328715.0896267-1.1158339.1222229-.2854948.0354024-.5632042.1033154-.8381929.2039102-.2380122.0842026-.4212183.214211-.5526297.3857988-.1329001.1733844-.1983834.2663819-.1983834.5544947 0 .4184976.1105362.7075344.3305477.8641502.2188993.1558628.5421236.2337857.97046.2337857.237995 0 .4813287-.0571332.7298298-.1685078.248484-.1114602.4732866-.2662793.6742024-.4674689zm0 1.519137c-.1850027.160346-.3516283.3044024-.4997058.4320665-.1480774.1251489-.3437573.2528131-.5922413.3805628-.2433337.1222401-.4786252.2145874-.7087664.2798654-.2300385.0625744-.5526125.0950851-.9651042.0950851-.7694586 0-1.4093708-.2662964-1.9171358-.7961516-.5102803-.5300433-.7642056-1.1985307-.7642056-2.0056332 0-.6631487.129632-1.2012513.3888103-1.6088835.2564405-.4077177.6293206-.7337653 1.1131988-.970169.4918347-.2445657 1.0788231-.415777 1.7610675-.5109476.682159-.095068 1.4146239-.1684908 2.1999956-.2228178v-.0489884c0-.4918347-.1772173-.8341719-.5314464-1.0217925-.3543319-.187518-.8866338-.3146175-1.5919267-.282586-.781248.0355906-1.5391909.3032901-2.2802626.7415508l-.3170473-2.0069508c.5441941-.1589428 2.1180345-.6872237 3.0997363-.7021957 1.4990831-.0228601 2.4399583.2565432 3.1252999.769065.6842123.5117861 1.1067309 1.5165191 1.1174081 2.5679134l.05958 5.8594454h-2.6972544zm6.6383663 1.245175c-.5799729 0-1.1264084-.070531-1.639512-.2143992-.5155162-.1438682-.9402935-.3094672-1.27683-.5022211l.5307962-1.8837867c.0557301-.1979043.4278572.1096807.6935034.2469098.2283446.117911.4844258.2252475.770759.3148913.2864189.0868206.5992568.1385296.933261.1302822 1.1135923-.0275314 1.7780415-1.2209973.5366994-1.6065222-.4332813-.1345086-.9945178-.3416014-1.367124-.4735775-.9934912-.3516112-1.8985705-1.3051143-1.8985705-2.5560043 0-.3962876.0806435-.7740443.2410921-1.1265966.1593193-.3503963.3944226-.6676318.7087492-.9419703.3108703-.2712586.5360493-.4145621.9938847-.5732312.4585713-.1588573.9760724-.2389361 1.553701-.2389361.5512095 0 1.0571949.0624717 1.5178366.1873297.4604534.1248409.8495374.2741503 1.1669611.4478941l-.5475648 1.7731649c-.0701546.2273179-.4046378-.0443-.5764994-.1334647-.2050395-.1062243-.4343251-.1954917-.6897561-.2633876-.2529842-.0678104-.5130865-.1031272-.7779627-.1031272-1.115543 0-1.5311318 1.1248171-.2935541 1.5744907.2062544.0749456.4510938.1167132.7230882.1710402.272097.056945.5346461.1330028.7875276.2279681.5633069.206357.9905139.5103829 1.2816211.9093913.2911928.4018316.4367549.9338426.4367549 1.5962385 0 .4180185-.0859821.8171295-.2577752 1.1971105-.1742058.3773802-.4176421.6977128-.7350658.9582942-.3365365.2795915-.7303089.4967969-1.1836442.6515304-.4558677.1547336-.9999591.2306888-1.6323767.2306888z" fill="#fefefe"/></g></g></svg>