<?xml version="1.0" encoding="UTF-8"?>
<svg width="42px" height="25px" viewBox="0 0 42 25" version="1.1" xmlns="http://www.w3.org/2000/svg" xmlns:xlink="http://www.w3.org/1999/xlink">
    <!-- Generator: Sketch 50.2 (55047) - http://www.bohemiancoding.com/sketch -->
    <title>mastercard</title>
    <desc>Created with Sketch.</desc>
    <defs></defs>
    <g id="Page-1" stroke="none" stroke-width="1" fill="none" fill-rule="evenodd">
        <g id="Zakaz-Desktop" transform="translate(-1162.000000, -573.000000)" fill-rule="nonzero">
            <g id="Принимаем-к-оплате" transform="translate(1064.000000, 530.000000)">
                <g id="mastercard" transform="translate(98.000000, 43.000000)">
                    <path d="M41.4473684,12.5 C41.4473684,19.3421053 35.9210526,24.9342105 29.0131579,24.9342105 C22.1710526,24.9342105 16.5789474,19.3421053 16.5789474,12.5 C16.5789474,5.65789474 22.1052632,0.0657894737 28.9473684,0.0657894737 C35.9210526,0.0657894737 41.4473684,5.65789474 41.4473684,12.5 Z" id="Shape" fill="#FFB600"></path>
                    <path d="M29.0131579,0.0657894737 C35.8552632,0.0657894737 41.4473684,5.65789474 41.4473684,12.5 C41.4473684,19.3421053 35.9210526,24.9342105 29.0131579,24.9342105 C22.1710526,24.9342105 16.5789474,19.3421053 16.5789474,12.5" id="Shape" fill="#F7981D"></path>
                    <path d="M29.0131579,0.0657894737 C35.8552632,0.0657894737 41.4473684,5.65789474 41.4473684,12.5 C41.4473684,19.3421053 35.9210526,24.9342105 29.0131579,24.9342105" id="Shape" fill="#FF8500"></path>
                    <path d="M12.3026316,0.0657894737 C5.52631579,0.131578947 0,5.65789474 0,12.5 C0,19.3421053 5.52631579,24.9342105 12.4342105,24.9342105 C15.6578947,24.9342105 18.5526316,23.6842105 20.7894737,21.7105263 C21.25,21.3157895 21.6447368,20.8552632 22.0394737,20.3947368 L19.4736842,20.3947368 C19.1447368,20 18.8157895,19.5394737 18.5526316,19.1447368 L22.9605263,19.1447368 C23.2236842,18.75 23.4868421,18.2894737 23.6842105,17.8289474 L17.8289474,17.8289474 C17.6315789,17.4342105 17.4342105,16.9736842 17.3026316,16.5131579 L24.1447368,16.5131579 C24.5394737,15.2631579 24.8026316,13.9473684 24.8026316,12.5657895 C24.8026316,11.6447368 24.6710526,10.7894737 24.5394737,9.93421053 L16.9078947,9.93421053 C16.9736842,9.47368421 17.1052632,9.07894737 17.2368421,8.61842105 L24.0789474,8.61842105 C23.9473684,8.15789474 23.75,7.69736842 23.5526316,7.30263158 L17.7631579,7.30263158 C17.9605263,6.84210526 18.2236842,6.44736842 18.4868421,5.98684211 L22.8947368,5.98684211 C22.6315789,5.52631579 22.3026316,5.06578947 21.9078947,4.67105263 L19.4736842,4.67105263 C19.8684211,4.21052632 20.2631579,3.81578947 20.7236842,3.42105263 C18.5526316,1.38157895 15.5921053,0.197368421 12.3684211,0.197368421 C12.3684211,0.0657894737 12.3684211,0.0657894737 12.3026316,0.0657894737 Z" id="Shape" fill="#FF5050"></path>
                    <path d="M0,12.5 C0,19.3421053 5.52631579,24.9342105 12.4342105,24.9342105 C15.6578947,24.9342105 18.5526316,23.6842105 20.7894737,21.7105263 C21.25,21.3157895 21.6447368,20.8552632 22.0394737,20.3947368 L19.4736842,20.3947368 C19.1447368,20 18.8157895,19.5394737 18.5526316,19.1447368 L22.9605263,19.1447368 C23.2236842,18.75 23.4868421,18.2894737 23.6842105,17.8289474 L17.8289474,17.8289474 C17.6315789,17.4342105 17.4342105,16.9736842 17.3026316,16.5131579 L24.1447368,16.5131579 C24.5394737,15.2631579 24.8026316,13.9473684 24.8026316,12.5657895 C24.8026316,11.6447368 24.6710526,10.7894737 24.5394737,9.93421053 L16.9078947,9.93421053 C16.9736842,9.47368421 17.1052632,9.07894737 17.2368421,8.61842105 L24.0789474,8.61842105 C23.9473684,8.15789474 23.75,7.69736842 23.5526316,7.30263158 L17.7631579,7.30263158 C17.9605263,6.84210526 18.2236842,6.44736842 18.4868421,5.98684211 L22.8947368,5.98684211 C22.6315789,5.52631579 22.3026316,5.06578947 21.9078947,4.67105263 L19.4736842,4.67105263 C19.8684211,4.21052632 20.2631579,3.81578947 20.7236842,3.42105263 C18.5526316,1.38157895 15.5921053,0.197368421 12.3684211,0.197368421 L12.3026316,0.197368421" id="Shape" fill="#E52836"></path>
                    <path d="M12.4342105,24.9342105 C15.6578947,24.9342105 18.5526316,23.6842105 20.7894737,21.7105263 C21.25,21.3157895 21.6447368,20.8552632 22.0394737,20.3947368 L19.4736842,20.3947368 C19.1447368,20 18.8157895,19.5394737 18.5526316,19.1447368 L22.9605263,19.1447368 C23.2236842,18.75 23.4868421,18.2894737 23.6842105,17.8289474 L17.8289474,17.8289474 C17.6315789,17.4342105 17.4342105,16.9736842 17.3026316,16.5131579 L24.1447368,16.5131579 C24.5394737,15.2631579 24.8026316,13.9473684 24.8026316,12.5657895 C24.8026316,11.6447368 24.6710526,10.7894737 24.5394737,9.93421053 L16.9078947,9.93421053 C16.9736842,9.47368421 17.1052632,9.07894737 17.2368421,8.61842105 L24.0789474,8.61842105 C23.9473684,8.15789474 23.75,7.69736842 23.5526316,7.30263158 L17.7631579,7.30263158 C17.9605263,6.84210526 18.2236842,6.44736842 18.4868421,5.98684211 L22.8947368,5.98684211 C22.6315789,5.52631579 22.3026316,5.06578947 21.9078947,4.67105263 L19.4736842,4.67105263 C19.8684211,4.21052632 20.2631579,3.81578947 20.7236842,3.42105263 C18.5526316,1.38157895 15.5921053,0.197368421 12.3684211,0.197368421 L12.3026316,0.197368421" id="Shape" fill="#CB2026"></path>
                    <g id="Group" transform="translate(1.151316, 9.210526)" fill="#FFFFFF">
                        <path d="M15.6907895,6.44736842 L15.8881579,5.32894737 C15.8223684,5.32894737 15.6907895,5.39473684 15.5592105,5.39473684 C15.0986842,5.39473684 15.0328947,5.13157895 15.0986842,5 L15.4934211,2.69736842 L16.2171053,2.69736842 L16.4144737,1.44736842 L15.7565789,1.44736842 L15.8881579,0.657894737 L14.5723684,0.657894737 C14.5723684,0.657894737 13.7828947,5 13.7828947,5.52631579 C13.7828947,6.31578947 14.2434211,6.64473684 14.8355263,6.64473684 C15.2302632,6.64473684 15.5592105,6.51315789 15.6907895,6.44736842 Z" id="Shape"></path>
                        <path d="M16.1513158,4.34210526 C16.1513158,6.18421053 17.4013158,6.64473684 18.4539474,6.64473684 C19.4407895,6.64473684 19.8355263,6.44736842 19.8355263,6.44736842 L20.0986842,5.19736842 C20.0986842,5.19736842 19.375,5.52631579 18.7171053,5.52631579 C17.2697368,5.52631579 17.5328947,4.47368421 17.5328947,4.47368421 L20.2302632,4.47368421 C20.2302632,4.47368421 20.4276316,3.61842105 20.4276316,3.28947368 C20.4276316,2.43421053 19.9671053,1.38157895 18.5197368,1.38157895 C17.1381579,1.25 16.1513158,2.69736842 16.1513158,4.34210526 Z M18.4539474,2.43421053 C19.1776316,2.43421053 19.0460526,3.28947368 19.0460526,3.35526316 L17.5986842,3.35526316 C17.5986842,3.28947368 17.7302632,2.43421053 18.4539474,2.43421053 Z" id="Shape"></path>
                        <path d="M26.8092105,6.44736842 L27.0723684,5 C27.0723684,5 26.4144737,5.32894737 25.9539474,5.32894737 C25.0328947,5.32894737 24.6381579,4.60526316 24.6381579,3.81578947 C24.6381579,2.23684211 25.4276316,1.38157895 26.3486842,1.38157895 C27.0065789,1.38157895 27.5328947,1.77631579 27.5328947,1.77631579 L27.7302632,0.394736842 C27.7302632,0.394736842 26.9407895,0.0657894737 26.2171053,0.0657894737 C24.7039474,0.0657894737 23.1907895,1.38157895 23.1907895,3.88157895 C23.1907895,5.52631579 23.9802632,6.64473684 25.5592105,6.64473684 C26.0855263,6.64473684 26.8092105,6.44736842 26.8092105,6.44736842 Z" id="Shape"></path>
                        <path d="M8.45394737,1.25 C7.53289474,1.25 6.875,1.51315789 6.875,1.51315789 L6.67763158,2.63157895 C6.67763158,2.63157895 7.26973684,2.36842105 8.125,2.36842105 C8.58552632,2.36842105 8.98026316,2.43421053 8.98026316,2.82894737 C8.98026316,3.09210526 8.91447368,3.15789474 8.91447368,3.15789474 C8.91447368,3.15789474 8.51973684,3.15789474 8.32236842,3.15789474 C7.20394737,3.15789474 5.95394737,3.61842105 5.95394737,5.13157895 C5.95394737,6.31578947 6.74342105,6.57894737 7.20394737,6.57894737 C8.125,6.57894737 8.51973684,5.98684211 8.58552632,5.98684211 L8.51973684,6.51315789 L9.70394737,6.51315789 L10.2302632,2.89473684 C10.2302632,1.31578947 8.91447368,1.25 8.45394737,1.25 Z M8.71710526,4.21052632 C8.71710526,4.40789474 8.58552632,5.46052632 7.79605263,5.46052632 C7.40131579,5.46052632 7.26973684,5.13157895 7.26973684,4.93421053 C7.26973684,4.60526316 7.46710526,4.14473684 8.45394737,4.14473684 C8.65131579,4.21052632 8.71710526,4.21052632 8.71710526,4.21052632 Z" id="Shape"></path>
                        <path d="M11.4802632,6.57894737 C11.8092105,6.57894737 13.4539474,6.64473684 13.4539474,4.86842105 C13.4539474,3.22368421 11.875,3.55263158 11.875,2.89473684 C11.875,2.56578947 12.1381579,2.43421053 12.5986842,2.43421053 C12.7960526,2.43421053 13.5197368,2.5 13.5197368,2.5 L13.7171053,1.31578947 C13.7171053,1.31578947 13.2565789,1.18421053 12.4671053,1.18421053 C11.4802632,1.18421053 10.4934211,1.57894737 10.4934211,2.89473684 C10.4934211,4.40789474 12.1381579,4.27631579 12.1381579,4.86842105 C12.1381579,5.26315789 11.6776316,5.32894737 11.3486842,5.32894737 C10.7565789,5.32894737 10.1644737,5.13157895 10.1644737,5.13157895 L9.96710526,6.31578947 C10.0328947,6.44736842 10.3618421,6.57894737 11.4802632,6.57894737 Z" id="Shape"></path>
                        <path d="M37.7302632,0.197368421 L37.4671053,1.97368421 C37.4671053,1.97368421 36.9407895,1.31578947 36.2171053,1.31578947 C35.0328947,1.31578947 33.9802632,2.76315789 33.9802632,4.47368421 C33.9802632,5.52631579 34.5065789,6.64473684 35.625,6.64473684 C36.4144737,6.64473684 36.875,6.11842105 36.875,6.11842105 L36.8092105,6.57894737 L38.125,6.57894737 L39.1118421,0.263157895 L37.7302632,0.197368421 Z M37.1381579,3.68421053 C37.1381579,4.40789474 36.8092105,5.32894737 36.0855263,5.32894737 C35.625,5.32894737 35.3618421,4.93421053 35.3618421,4.27631579 C35.3618421,3.22368421 35.8223684,2.56578947 36.4144737,2.56578947 C36.875,2.56578947 37.1381579,2.89473684 37.1381579,3.68421053 Z" id="Shape"></path>
                        <polygon id="Shape" points="1.28289474 6.51315789 2.07236842 1.77631579 2.20394737 6.51315789 3.125 6.51315789 4.83552632 1.77631579 4.11184211 6.51315789 5.49342105 6.51315789 6.54605263 0.197368421 4.375 0.197368421 3.05921053 4.07894737 2.99342105 0.197368421 1.08552632 0.197368421 0.0328947368 6.51315789"></polygon>
                        <path d="M21.6776316,6.51315789 C22.0723684,4.34210526 22.1381579,2.56578947 23.0592105,2.89473684 C23.1907895,2.03947368 23.3881579,1.71052632 23.5197368,1.38157895 C23.5197368,1.38157895 23.4539474,1.38157895 23.2565789,1.38157895 C22.6644737,1.38157895 22.2039474,2.17105263 22.2039474,2.17105263 L22.3355263,1.44736842 L21.0855263,1.44736842 L20.2302632,6.57894737 L21.6776316,6.57894737 L21.6776316,6.51315789 Z" id="Shape"></path>
                        <path d="M29.8355263,1.25 C28.9144737,1.25 28.2565789,1.51315789 28.2565789,1.51315789 L28.0592105,2.63157895 C28.0592105,2.63157895 28.6513158,2.36842105 29.5065789,2.36842105 C29.9671053,2.36842105 30.3618421,2.43421053 30.3618421,2.82894737 C30.3618421,3.09210526 30.2960526,3.15789474 30.2960526,3.15789474 C30.2960526,3.15789474 29.9013158,3.15789474 29.7039474,3.15789474 C28.5855263,3.15789474 27.3355263,3.61842105 27.3355263,5.13157895 C27.3355263,6.31578947 28.125,6.57894737 28.5855263,6.57894737 C29.5065789,6.57894737 29.9013158,5.98684211 29.9671053,5.98684211 L29.9013158,6.51315789 L31.0855263,6.51315789 L31.6118421,2.89473684 C31.6776316,1.31578947 30.2960526,1.25 29.8355263,1.25 Z M30.1644737,4.21052632 C30.1644737,4.40789474 30.0328947,5.46052632 29.2434211,5.46052632 C28.8486842,5.46052632 28.7171053,5.13157895 28.7171053,4.93421053 C28.7171053,4.60526316 28.9144737,4.14473684 29.9013158,4.14473684 C30.0986842,4.21052632 30.0986842,4.21052632 30.1644737,4.21052632 Z" id="Shape"></path>
                        <path d="M32.7302632,6.51315789 C33.125,4.34210526 33.1907895,2.56578947 34.1118421,2.89473684 C34.2434211,2.03947368 34.4407895,1.71052632 34.5723684,1.38157895 C34.5723684,1.38157895 34.5065789,1.38157895 34.3092105,1.38157895 C33.7171053,1.38157895 33.2565789,2.17105263 33.2565789,2.17105263 L33.3881579,1.44736842 L32.1381579,1.44736842 L31.2828947,6.57894737 L32.7302632,6.57894737 L32.7302632,6.51315789 Z" id="Shape"></path>
                    </g>
                    <g id="Group" transform="translate(1.151316, 9.210526)" fill="#DCE5E5">
                        <path d="M13.6513158,5.52631579 C13.6513158,6.31578947 14.1118421,6.64473684 14.7039474,6.64473684 C15.1644737,6.64473684 15.5592105,6.51315789 15.6907895,6.44736842 L15.8881579,5.32894737 C15.8223684,5.32894737 15.6907895,5.39473684 15.5592105,5.39473684 C15.0986842,5.39473684 15.0328947,5.13157895 15.0986842,5 L15.4934211,2.69736842 L16.2171053,2.69736842 L16.4144737,1.44736842 L15.7565789,1.44736842 L15.8881579,0.657894737" id="Shape"></path>
                        <path d="M16.8092105,4.34210526 C16.8092105,6.18421053 17.4013158,6.64473684 18.4539474,6.64473684 C19.4407895,6.64473684 19.8355263,6.44736842 19.8355263,6.44736842 L20.0986842,5.19736842 C20.0986842,5.19736842 19.375,5.52631579 18.7171053,5.52631579 C17.2697368,5.52631579 17.5328947,4.47368421 17.5328947,4.47368421 L20.2302632,4.47368421 C20.2302632,4.47368421 20.4276316,3.61842105 20.4276316,3.28947368 C20.4276316,2.43421053 19.9671053,1.38157895 18.5197368,1.38157895 C17.1381579,1.25 16.8092105,2.69736842 16.8092105,4.34210526 Z M18.4539474,2.43421053 C19.1776316,2.43421053 19.3092105,3.28947368 19.3092105,3.35526316 L17.5986842,3.35526316 C17.5986842,3.28947368 17.7302632,2.43421053 18.4539474,2.43421053 Z" id="Shape"></path>
                        <path d="M26.8092105,6.44736842 L27.0723684,5 C27.0723684,5 26.4144737,5.32894737 25.9539474,5.32894737 C25.0328947,5.32894737 24.6381579,4.60526316 24.6381579,3.81578947 C24.6381579,2.23684211 25.4276316,1.38157895 26.3486842,1.38157895 C27.0065789,1.38157895 27.5328947,1.77631579 27.5328947,1.77631579 L27.7302632,0.394736842 C27.7302632,0.394736842 26.9407895,0.0657894737 26.2171053,0.0657894737 C24.7039474,0.0657894737 23.8486842,1.38157895 23.8486842,3.88157895 C23.8486842,5.52631579 23.9802632,6.64473684 25.5592105,6.64473684 C26.0855263,6.64473684 26.8092105,6.44736842 26.8092105,6.44736842 Z" id="Shape"></path>
                        <path d="M6.67763158,2.69736842 C6.67763158,2.69736842 7.26973684,2.43421053 8.125,2.43421053 C8.58552632,2.43421053 8.98026316,2.5 8.98026316,2.89473684 C8.98026316,3.15789474 8.91447368,3.22368421 8.91447368,3.22368421 C8.91447368,3.22368421 8.51973684,3.22368421 8.32236842,3.22368421 C7.20394737,3.22368421 5.95394737,3.68421053 5.95394737,5.19736842 C5.95394737,6.38157895 6.74342105,6.64473684 7.20394737,6.64473684 C8.125,6.64473684 8.51973684,6.05263158 8.58552632,6.05263158 L8.51973684,6.57894737 L9.70394737,6.57894737 L10.2302632,2.96052632 C10.2302632,1.44736842 8.91447368,1.38157895 8.38815789,1.38157895 L6.67763158,2.69736842 Z M9.375,4.21052632 C9.375,4.40789474 8.58552632,5.46052632 7.79605263,5.46052632 C7.40131579,5.46052632 7.26973684,5.13157895 7.26973684,4.93421053 C7.26973684,4.60526316 7.46710526,4.14473684 8.45394737,4.14473684 C8.65131579,4.21052632 9.375,4.21052632 9.375,4.21052632 Z" id="Shape"></path>
                        <path d="M10.0328947,6.44736842 C10.0328947,6.44736842 10.4276316,6.57894737 11.5460526,6.57894737 C11.875,6.57894737 13.5197368,6.64473684 13.5197368,4.86842105 C13.5197368,3.22368421 11.9407895,3.55263158 11.9407895,2.89473684 C11.9407895,2.56578947 12.2039474,2.43421053 12.6644737,2.43421053 C12.8618421,2.43421053 13.5855263,2.5 13.5855263,2.5 L13.7828947,1.31578947 C13.7828947,1.31578947 13.3223684,1.18421053 12.5328947,1.18421053 C11.5460526,1.18421053 11.2171053,1.57894737 11.2171053,2.89473684 C11.2171053,4.40789474 12.2039474,4.27631579 12.2039474,4.86842105 C12.2039474,5.26315789 11.7434211,5.32894737 11.4144737,5.32894737" id="Shape"></path>
                        <path d="M37.4671053,1.97368421 C37.4671053,1.97368421 36.9407895,1.31578947 36.2171053,1.31578947 C35.0328947,1.31578947 34.6381579,2.76315789 34.6381579,4.47368421 C34.6381579,5.52631579 34.5065789,6.64473684 35.625,6.64473684 C36.4144737,6.64473684 36.875,6.11842105 36.875,6.11842105 L36.8092105,6.57894737 L38.125,6.57894737 L39.1118421,0.263157895 L37.4671053,1.97368421 Z M37.4013158,3.68421053 C37.4013158,4.40789474 36.8092105,5.32894737 36.0855263,5.32894737 C35.625,5.32894737 35.3618421,4.93421053 35.3618421,4.27631579 C35.3618421,3.22368421 35.8223684,2.56578947 36.4144737,2.56578947 C36.875,2.56578947 37.4013158,2.89473684 37.4013158,3.68421053 Z" id="Shape"></path>
                        <polygon id="Shape" points="1.28289474 6.51315789 2.07236842 1.77631579 2.20394737 6.51315789 3.125 6.51315789 4.83552632 1.77631579 4.11184211 6.51315789 5.49342105 6.51315789 6.54605263 0.197368421 4.90131579 0.197368421 3.05921053 4.07894737 2.99342105 0.197368421 2.26973684 0.197368421 0.0328947368 6.51315789"></polygon>
                        <path d="M20.2960526,6.51315789 L21.6776316,6.51315789 C22.0723684,4.34210526 22.1381579,2.56578947 23.0592105,2.89473684 C23.1907895,2.03947368 23.3881579,1.71052632 23.5197368,1.38157895 C23.5197368,1.38157895 23.4539474,1.38157895 23.2565789,1.38157895 C22.6644737,1.38157895 22.2039474,2.17105263 22.2039474,2.17105263 L22.3355263,1.44736842" id="Shape"></path>
                        <path d="M28.0592105,2.69736842 C28.0592105,2.69736842 28.6513158,2.43421053 29.5065789,2.43421053 C29.9671053,2.43421053 30.3618421,2.5 30.3618421,2.89473684 C30.3618421,3.15789474 30.2960526,3.22368421 30.2960526,3.22368421 C30.2960526,3.22368421 29.9013158,3.22368421 29.7039474,3.22368421 C28.5855263,3.22368421 27.3355263,3.68421053 27.3355263,5.19736842 C27.3355263,6.38157895 28.125,6.64473684 28.5855263,6.64473684 C29.5065789,6.64473684 29.9013158,6.05263158 29.9671053,6.05263158 L29.9013158,6.57894737 L31.0855263,6.57894737 L31.6118421,2.96052632 C31.6118421,1.44736842 30.2960526,1.38157895 29.7697368,1.38157895 L28.0592105,2.69736842 Z M30.7565789,4.21052632 C30.7565789,4.40789474 29.9671053,5.46052632 29.1776316,5.46052632 C28.7828947,5.46052632 28.6513158,5.13157895 28.6513158,4.93421053 C28.6513158,4.60526316 28.8486842,4.14473684 29.8355263,4.14473684 C30.0986842,4.21052632 30.7565789,4.21052632 30.7565789,4.21052632 Z" id="Shape"></path>
                        <path d="M31.3486842,6.51315789 L32.7302632,6.51315789 C33.125,4.34210526 33.1907895,2.56578947 34.1118421,2.89473684 C34.2434211,2.03947368 34.4407895,1.71052632 34.5723684,1.38157895 C34.5723684,1.38157895 34.5065789,1.38157895 34.3092105,1.38157895 C33.7171053,1.38157895 33.2565789,2.17105263 33.2565789,2.17105263 L33.3881579,1.44736842" id="Shape"></path>
                    </g>
                </g>
            </g>
        </g>
    </g>
</svg>