<svg height="20" viewBox="0 0 40 20" width="40" xmlns="http://www.w3.org/2000/svg"><path d="m39.0902924 0h-38.25855751c-.45910331 0-.83173489.37263158-.83173489.83173489 0 .45910332.37263158.8317349.83173489.8317349h38.25863551c.4591033 0 .8317349-.37263158.8317349-.8317349 0-.45910331-.3727096-.83173489-.8318129-.83173489z"/><path d="m39.0902924 9h-38.25855751c-.45910331 0-.83173489.37263158-.83173489.83173489s.37263158.83173491.83173489.83173491h38.25863551c.4591033 0 .8317349-.3726316.8317349-.83173491s-.3727096-.83173489-.8318129-.83173489z"/><path d="m39.3749231 18h-28.7499048c-.3449993 0-.6250183.3725536-.6250183.8316569s.280019.8317349.6250183.8317349h28.7499634c.3449993 0 .6250183-.3726316.6250183-.8317349-.0000586-.4591033-.2800776-.8316569-.6250769-.8316569z"/></svg>