<svg height="21" viewBox="0 0 22 21" width="22" xmlns="http://www.w3.org/2000/svg"><path d="m10.9528014 11.7629397c3.2479646 0 5.8823865-2.63446098 5.8823865-5.88238651s-2.6344609-5.86436525-5.8823865-5.86436525c-3.24792551 0-5.88238651 2.634461-5.88238651 5.86436525 0 3.22990426 2.63442199 5.88238651 5.88238651 5.88238651zm0-10.21299289c2.3818121 0 4.3306064 1.94875532 4.3306064 4.33060638 0 2.38185107-1.9487943 4.33056741-4.3306064 4.33056741-2.38181204 0-4.33060636-1.94875535-4.33060636-4.33060642 0-2.38185106 1.94875531-4.33056737 4.33060636-4.33056737z"/><path d="m.77589007 20.9473936h20.42598583c.4330567 0 .7758901-.3428333.7758901-.7758901 0-4.0599361-3.3020674-7.3800638-7.3800639-7.3800638h-7.21763827c-4.05993617 0-7.38006383 3.3020674-7.38006383 7.3800638 0 .4330568.34283333.7758901.77589007.7758901zm6.60417376-6.6041737h7.21763827c2.9592341 0 5.395188 2.2014042 5.7741419 5.0523546h-18.76592201c.37891489-2.8328901 2.8149078-5.0523546 5.77414184-5.0523546z"/></svg>