<svg height="22" viewBox="0 0 22 22" width="22" xmlns="http://www.w3.org/2000/svg"><path d="m1157.73061 35.437551-5.28898-5.2889796c1.31102-1.5983673 2.10123-3.6457143 2.10123-5.8771428 0-5.1183674-4.15306-9.2714286-9.27143-9.2714286-5.12286 0-9.27143 4.1530612-9.27143 9.2714286 0 5.1183673 4.14857 9.2714285 9.27143 9.2714285 2.23143 0 4.27428-.7857142 5.87265-2.0967347l5.28898 5.2844898c.35918.3591837.93837.3591837 1.29755 0 .35919-.3546938.35919-.9383673 0-1.2930612zm-12.45918-3.74c-4.09919 0-7.43061-3.3314286-7.43061-7.4261224 0-4.0946939 3.33142-7.4306123 7.43061-7.4306123 4.09469 0 7.43061 3.3359184 7.43061 7.4306123 0 4.0946938-3.33592 7.4261224-7.43061 7.4261224z" transform="translate(-1136 -15)"/></svg>