<svg height="26" viewBox="0 0 18 26" width="18" xmlns="http://www.w3.org/2000/svg"><g fill="#000"><path d="m8.9375 0c-4.9281375 0-8.9375 4.0093625-8.9375 8.9375 0 1.6650562.46122465 3.2899931 1.33412049 4.6997347l7.09463715 11.4328997c.13589965.2190184.37532535.3520878.63282465.3520878h.00590868c.25973368-.0020357.4996559-.1392264.63307292-.362068l6.91380171-11.543675c.8247327-1.37995 1.2606344-2.9633275 1.2606344-4.5789792 0-4.9281375-4.0093625-8.9375-8.9375-8.9375zm6.3985549 12.7517271-6.28574379 10.4950083-6.4501441-10.3943125c-.72656909-1.1733944-1.12051423-2.5271278-1.12051423-3.9149229 0-4.10678125 3.35106597-7.45784722 7.45784722-7.45784722 4.1067813 0 7.4528819 3.35106597 7.4528819 7.45784722 0 1.346633-.3679767 2.6657583-1.054327 3.8142271z"/><path d="m8.9375 4.46875c-2.46406875 0-4.46875 2.00468125-4.46875 4.46875 0 2.4483288 1.97205937 4.46875 4.46875 4.46875 2.5274753 0 4.46875-2.047333 4.46875-4.46875 0-2.46406875-2.0046813-4.46875-4.46875-4.46875zm0 7.4578472c-1.65130243 0-2.98909722-1.3422635-2.98909722-2.9890972 0-1.6427125 1.34638472-2.98909722 2.98909722-2.98909722s2.9841319 1.34638472 2.9841319 2.98909722c0 1.6228017-1.3066625 2.9890972-2.9841319 2.9890972z"/></g></svg>