<?xml version="1.0" encoding="UTF-8"?>
<svg width="20px" height="15px" viewBox="0 0 20 15" version="1.1" xmlns="http://www.w3.org/2000/svg" xmlns:xlink="http://www.w3.org/1999/xlink">
    <!-- Generator: Sketch 50.2 (55047) - http://www.bohemiancoding.com/sketch -->
    <title>Message</title>
    <desc>Created with Sketch.</desc>
    <defs></defs>
    <g id="Page-1" stroke="none" stroke-width="1" fill="none" fill-rule="evenodd">
        <g id="Contacts-Desktop" transform="translate(-192.000000, -590.000000)" fill="#000000" fill-rule="nonzero">
            <g id="Контакты" transform="translate(192.000000, 342.000000)">
                <path d="M17.9074595,248.020594 L2.09205021,248.020594 C0.937173138,248.022065 0.00130753138,248.95793 0,250.112644 L0,260.430701 C0.00130753138,261.585578 0.937173138,262.521444 2.09205021,262.522751 L17.9074595,262.522751 C19.0623366,262.521444 19.9982021,261.585578 19.9995097,260.430701 L19.9995097,250.112644 C19.9982021,248.95793 19.0623366,248.021901 17.9074595,248.020594 Z M14.1878596,255.268894 L19.1626896,251.364278 L19.1626896,260.098098 L14.1878596,255.268894 Z M2.09205021,248.857414 L17.9074595,248.857414 C18.6002877,248.858231 19.1618724,249.419816 19.1626896,250.112644 L19.1626896,250.300601 L11.1120554,256.61941 C10.5063415,257.092246 9.65644611,257.091429 9.05154941,256.617612 L0.836820084,250.298967 L0.836820084,250.112644 C0.83763728,249.419816 1.39905858,248.858231 2.09205021,248.857414 Z M5.95972803,255.295208 L0.836820084,260.115095 L0.836820084,251.354799 L5.95972803,255.295208 Z M17.9074595,261.685931 L2.09205021,261.685931 C1.6563154,261.685768 1.2519613,261.459565 1.02347021,261.088389 L6.63163573,255.812337 L8.53883368,257.279223 C9.44642389,257.988232 10.7201229,257.987905 11.6273862,257.278406 L13.5236336,255.790599 L18.9781642,261.08512 C18.7501634,261.458094 18.3446653,261.685604 17.9074595,261.685931 Z" id="Message"></path>
            </g>
        </g>
    </g>
</svg>