<?xml version="1.0" encoding="UTF-8"?>
<svg width="20px" height="20px" viewBox="0 0 20 20" version="1.1" xmlns="http://www.w3.org/2000/svg" xmlns:xlink="http://www.w3.org/1999/xlink">
    <!-- Generator: Sketch 50.2 (55047) - http://www.bohemiancoding.com/sketch -->
    <title>Phone</title>
    <desc>Created with Sketch.</desc>
    <defs></defs>
    <g id="Page-1" stroke="none" stroke-width="1" fill="none" fill-rule="evenodd">
        <g id="Contacts-Desktop" transform="translate(-192.000000, -514.000000)" fill="#000000" fill-rule="nonzero">
            <g id="Контакты" transform="translate(192.000000, 342.000000)">
                <path d="M4.07200828,185.283644 C6.04302277,187.639752 8.41569358,189.494824 11.1237681,190.807453 C12.154824,191.296066 13.533706,191.875776 15.0699379,191.975155 C15.165176,191.979296 15.2562733,191.983437 15.3515114,191.983437 C16.3825673,191.983437 17.2107246,191.627329 17.8856729,190.89441 C17.8898137,190.890269 17.8980952,190.881988 17.902236,190.873706 C18.1424017,190.583851 18.4156936,190.322981 18.7014079,190.045549 C18.8960248,189.859213 19.0947826,189.664596 19.2852588,189.465839 C20.1672464,188.546584 20.1672464,187.378882 19.2769772,186.488613 L16.7883644,184 C16.3660041,183.561077 15.8608282,183.329193 15.3308075,183.329193 C14.8007867,183.329193 14.29147,183.561077 13.8566874,183.995859 L12.3742857,185.478261 C12.2376398,185.399586 12.096853,185.329193 11.9643478,185.26294 C11.7987164,185.180124 11.6455072,185.101449 11.5088613,185.014493 C10.1589648,184.15735 8.93329193,183.039337 7.76144928,181.602484 C7.16931677,180.853002 6.77180124,180.223602 6.49436853,179.581781 C6.88360248,179.229814 7.24799172,178.861284 7.59995859,178.501035 C7.72418219,178.372671 7.85254658,178.244306 7.98091097,178.115942 C8.42811594,177.668737 8.66828157,177.151139 8.66828157,176.625259 C8.66828157,176.099379 8.43225673,175.581781 7.98091097,175.134576 L6.74695652,173.900621 C6.60202899,173.755694 6.46538302,173.614907 6.32459627,173.469979 C6.05130435,173.188406 5.76559006,172.898551 5.48401656,172.637681 C5.05751553,172.219462 4.55648033,172 4.02645963,172 C3.50057971,172 2.99540373,172.219462 2.55233954,172.641822 L1.0036853,174.190476 C0.440538302,174.753623 0.121697723,175.436853 0.0554451346,176.227743 C-0.0232298137,177.217391 0.158964803,178.269151 0.631014493,179.540373 C1.35565217,181.507246 2.44881988,183.333333 4.07200828,185.283644 Z M1.0657971,176.3147 C1.11548654,175.763975 1.32666667,175.304348 1.72418219,174.906832 L3.26455487,173.36646 C3.5047205,173.134576 3.76973085,173.014493 4.02645963,173.014493 C4.27904762,173.014493 4.5357764,173.134576 4.77180124,173.374741 C5.04923395,173.63147 5.31010352,173.900621 5.59167702,174.186335 C5.73246377,174.331263 5.8773913,174.47619 6.02231884,174.625259 L7.25627329,175.859213 C7.51300207,176.115942 7.64550725,176.376812 7.64550725,176.63354 C7.64550725,176.890269 7.51300207,177.151139 7.25627329,177.407867 C7.1279089,177.536232 6.99954451,177.668737 6.87118012,177.797101 C6.48608696,178.186335 6.12583851,178.554865 5.72832298,178.906832 C5.72004141,178.915114 5.71590062,178.919255 5.70761905,178.927536 C5.36393375,179.271222 5.41776398,179.598344 5.50057971,179.846791 C5.5047205,179.859213 5.50886128,179.867495 5.51300207,179.879917 C5.83184265,180.645963 6.27490683,181.374741 6.96641822,182.244306 C8.20865424,183.776398 9.51714286,184.964803 10.9581366,185.879917 C11.1361905,185.995859 11.3266667,186.086957 11.5047205,186.178054 C11.670352,186.26087 11.8235611,186.339545 11.960207,186.426501 C11.9767702,186.434783 11.9891925,186.443064 12.0057557,186.451346 C12.1424017,186.521739 12.2749068,186.554865 12.407412,186.554865 C12.7386749,186.554865 12.9539959,186.343685 13.0243892,186.273292 L14.5730435,184.724638 C14.8132091,184.484472 15.0740787,184.356108 15.3308075,184.356108 C15.6455072,184.356108 15.902236,184.550725 16.0637267,184.724638 L18.5606211,187.217391 C19.0575155,187.714286 19.0533747,188.252588 18.5481988,188.778468 C18.3742857,188.964803 18.1920911,189.142857 17.9974741,189.329193 C17.707619,189.610766 17.4053416,189.900621 17.1320497,190.227743 C16.6558592,190.741201 16.0885714,190.981366 15.3556522,190.981366 C15.2852588,190.981366 15.2107246,190.977226 15.1403313,190.973085 C13.7821532,190.886128 12.5192133,190.356108 11.5709731,189.904762 C8.99540373,188.658385 6.73453416,186.890269 4.85875776,184.645963 C3.31424431,182.786749 2.27490683,181.055901 1.58753623,179.200828 C1.1610352,178.062112 0.999544513,177.146998 1.0657971,176.3147 Z" id="Phone"></path>
            </g>
        </g>
    </g>
</svg>