<?xml version="1.0" encoding="UTF-8"?>
<svg width="60px" height="19px" viewBox="0 0 60 19" version="1.1" xmlns="http://www.w3.org/2000/svg" xmlns:xlink="http://www.w3.org/1999/xlink">
    <!-- Generator: Sketch 50.2 (55047) - http://www.bohemiancoding.com/sketch -->
    <title>visa</title>
    <desc>Created with Sketch.</desc>
    <defs></defs>
    <g id="Page-1" stroke="none" stroke-width="1" fill="none" fill-rule="evenodd">
        <g id="Zakaz-Desktop" transform="translate(-1071.000000, -576.000000)" fill-rule="nonzero">
            <g id="Принимаем-к-оплате" transform="translate(1064.000000, 530.000000)">
                <g id="visa" transform="translate(7.000000, 46.000000)">
                    <polygon id="Shape" fill="#3C58BF" points="22 17.7857143 25.047619 0.642857143 29.8095238 0.642857143 26.8571429 17.7857143"></polygon>
                    <polygon id="Shape" fill="#293688" points="22 17.7857143 25.9047619 0.642857143 29.8095238 0.642857143 26.8571429 17.7857143"></polygon>
                    <path d="M44.0952381,0.833333333 C43.1428571,0.452380952 41.6190476,0.0714285714 39.7142857,0.0714285714 C34.952381,0.0714285714 31.5238095,2.45238095 31.5238095,5.88095238 C31.5238095,8.45238095 33.9047619,9.78571429 35.8095238,10.6428571 C37.7142857,11.5 38.2857143,12.0714286 38.2857143,12.8333333 C38.2857143,13.9761905 36.7619048,14.547619 35.4285714,14.547619 C33.5238095,14.547619 32.4761905,14.2619048 30.8571429,13.5952381 L30.1904762,13.3095238 L29.5238095,17.2142857 C30.6666667,17.6904762 32.7619048,18.1666667 34.952381,18.1666667 C40,18.1666667 43.3333333,15.7857143 43.3333333,12.1666667 C43.3333333,10.1666667 42.0952381,8.64285714 39.2380952,7.4047619 C37.5238095,6.54761905 36.4761905,6.07142857 36.4761905,5.21428571 C36.4761905,4.45238095 37.3333333,3.69047619 39.2380952,3.69047619 C40.8571429,3.69047619 42,3.97619048 42.8571429,4.35714286 L43.3333333,4.54761905 L44.0952381,0.833333333 Z" id="Shape" fill="#3C58BF"></path>
                    <path d="M44.0952381,0.833333333 C43.1428571,0.452380952 41.6190476,0.0714285714 39.7142857,0.0714285714 C34.952381,0.0714285714 32.3809524,2.45238095 32.3809524,5.88095238 C32.3809524,8.45238095 33.9047619,9.78571429 35.8095238,10.6428571 C37.7142857,11.5 38.2857143,12.0714286 38.2857143,12.8333333 C38.2857143,13.9761905 36.7619048,14.547619 35.4285714,14.547619 C33.5238095,14.547619 32.4761905,14.2619048 30.8571429,13.5952381 L30.1904762,13.3095238 L29.5238095,17.2142857 C30.6666667,17.6904762 32.7619048,18.1666667 34.952381,18.1666667 C40,18.1666667 43.3333333,15.7857143 43.3333333,12.1666667 C43.3333333,10.1666667 42.0952381,8.64285714 39.2380952,7.4047619 C37.5238095,6.54761905 36.4761905,6.07142857 36.4761905,5.21428571 C36.4761905,4.45238095 37.3333333,3.69047619 39.2380952,3.69047619 C40.8571429,3.69047619 42,3.97619048 42.8571429,4.35714286 L43.3333333,4.54761905 L44.0952381,0.833333333 Z" id="Shape" fill="#293688"></path>
                    <path d="M52.2857143,0.642857143 C51.1428571,0.642857143 50.2857143,0.738095238 49.8095238,1.88095238 L42.6666667,17.7857143 L47.8095238,17.7857143 L48.7619048,14.9285714 L54.8571429,14.9285714 L55.4285714,17.7857143 L60,17.7857143 L56,0.642857143 L52.2857143,0.642857143 Z M50.0952381,12.0714286 C50.3809524,11.2142857 52,7.02380952 52,7.02380952 C52,7.02380952 52.3809524,5.97619048 52.6666667,5.30952381 L52.952381,6.92857143 C52.952381,6.92857143 53.9047619,11.2142857 54.0952381,12.1666667 L50.0952381,12.1666667 L50.0952381,12.0714286 Z" id="Shape" fill="#3C58BF"></path>
                    <path d="M53.4285714,0.642857143 C52.2857143,0.642857143 51.4285714,0.738095238 50.952381,1.88095238 L42.6666667,17.7857143 L47.8095238,17.7857143 L48.7619048,14.9285714 L54.8571429,14.9285714 L55.4285714,17.7857143 L60,17.7857143 L56,0.642857143 L53.4285714,0.642857143 Z M50.0952381,12.0714286 C50.4761905,11.1190476 52,7.02380952 52,7.02380952 C52,7.02380952 52.3809524,5.97619048 52.6666667,5.30952381 L52.952381,6.92857143 C52.952381,6.92857143 53.9047619,11.2142857 54.0952381,12.1666667 L50.0952381,12.1666667 L50.0952381,12.0714286 Z" id="Shape" fill="#293688"></path>
                    <path d="M13.2380952,12.6428571 L12.7619048,10.1666667 C11.9047619,7.30952381 9.14285714,4.16666667 6.0952381,2.64285714 L10.3809524,17.8809524 L15.5238095,17.8809524 L23.2380952,0.738095238 L18.0952381,0.738095238 L13.2380952,12.6428571 Z" id="Shape" fill="#3C58BF"></path>
                    <path d="M13.2380952,12.6428571 L12.7619048,10.1666667 C11.9047619,7.30952381 9.14285714,4.16666667 6.0952381,2.64285714 L10.3809524,17.8809524 L15.5238095,17.8809524 L23.2380952,0.738095238 L19.047619,0.738095238 L13.2380952,12.6428571 Z" id="Shape" fill="#293688"></path>
                    <path d="M0,0.642857143 L0.857142857,0.833333333 C6.95238095,2.26190476 11.1428571,5.88095238 12.7619048,10.1666667 L11.047619,2.07142857 C10.7619048,0.928571429 9.9047619,0.642857143 8.85714286,0.642857143 L0,0.642857143 Z" id="Shape" fill="#FFBC00"></path>
                    <path d="M0,0.642857143 C6.0952381,2.07142857 11.1428571,5.78571429 12.7619048,10.0714286 L11.1428571,3.30952381 C10.8571429,2.16666667 9.9047619,1.5 8.85714286,1.5 L0,0.642857143 Z" id="Shape" fill="#F7981D"></path>
                    <path d="M0,0.642857143 C6.0952381,2.07142857 11.1428571,5.78571429 12.7619048,10.0714286 L11.6190476,6.35714286 C11.3333333,5.21428571 10.952381,4.07142857 9.61904762,3.5952381 L0,0.642857143 Z" id="Shape" fill="#ED7C00"></path>
                    <g id="Group" transform="translate(6.190476, 2.500000)" fill="#051244">
                        <path d="M11.8095238,9.57142857 L8.57142857,6.33333333 L7.04761905,9.95238095 L6.66666667,7.57142857 C5.80952381,4.71428571 3.04761905,1.57142857 0,0.0476190476 L4.28571429,15.2857143 L9.42857143,15.2857143 L11.8095238,9.57142857 Z" id="Shape"></path>
                        <polygon id="Shape" points="20.6666667 15.2857143 16.5714286 11.0952381 15.8095238 15.2857143"></polygon>
                        <path d="M31.6190476,9.38095238 C32,9.76190476 32.1904762,10.047619 32.0952381,10.4285714 C32.0952381,11.5714286 30.5714286,12.1428571 29.2380952,12.1428571 C27.3333333,12.1428571 26.2857143,11.8571429 24.6666667,11.1904762 L24,10.9047619 L23.3333333,14.8095238 C24.4761905,15.2857143 26.5714286,15.7619048 28.7619048,15.7619048 C31.8095238,15.7619048 34.2857143,14.9047619 35.7142857,13.3809524 L31.6190476,9.38095238 Z" id="Shape"></path>
                        <path d="M37.1428571,15.2857143 L41.6190476,15.2857143 L42.5714286,12.4285714 L48.6666667,12.4285714 L49.2380952,15.2857143 L53.8095238,15.2857143 L52.1904762,8.33333333 L46.4761905,2.80952381 L46.7619048,4.33333333 C46.7619048,4.33333333 47.7142857,8.61904762 47.9047619,9.57142857 L43.9047619,9.57142857 C44.2857143,8.61904762 45.8095238,4.52380952 45.8095238,4.52380952 C45.8095238,4.52380952 46.1904762,3.47619048 46.4761905,2.80952381" id="Shape"></path>
                    </g>
                </g>
            </g>
        </g>
    </g>
</svg>